<svg width="152" height="164" viewBox="0 0 152 164" fill="none" xmlns="http://www.w3.org/2000/svg">
<path d="M74.1349 70.0478L44.6349 110.548L70.1349 123.048L54.6349 163.048L85.1349 123.048L59.6349 110.548L74.1349 70.0478Z" fill="#FFFB00"/>
<path d="M74.1349 70.0478L44.6349 110.548L70.1349 123.048L54.6349 163.048L85.1349 123.048L59.6349 110.548L74.1349 70.0478Z" fill="#FFFB00"/>
<path d="M74.1349 70.0478L44.6349 110.548L70.1349 123.048L54.6349 163.048L85.1349 123.048L59.6349 110.548L74.1349 70.0478Z" stroke="black"/>
<path d="M10.1348 48.0479C0.134831 37.5479 2.63482 17.5479 23.1347 17.5479C33.4894 -1.87752 57.6349 -4.45216 77.1349 8.54776C103.23 -0.390187 117.135 -0.952097 129.635 21.5478C144.135 21.5478 159.056 26.3815 146.635 48.0479C148.024 57.8224 148.467 64.3035 135.135 63.0479C136.127 76.4494 126.135 78.5479 109.135 68.0479C100.854 78.103 91.7752 81.3275 73.1348 72.0479C53.9183 80.8237 47.3237 90.0849 23.1347 75.5478C-2.20752 80.8591 -5.86518 67.0479 10.1348 48.0479Z" fill="#F5F5F5"/>
<path d="M10.1348 48.0479C0.134831 37.5479 2.63482 17.5479 23.1347 17.5479C33.4894 -1.87752 57.6349 -4.45216 77.1349 8.54776C103.23 -0.390187 117.135 -0.952097 129.635 21.5478C144.135 21.5478 159.056 26.3815 146.635 48.0479C148.024 57.8224 148.467 64.3035 135.135 63.0479C136.127 76.4494 126.135 78.5479 109.135 68.0479C100.854 78.103 91.7752 81.3275 73.1348 72.0479C53.9183 80.8237 47.3237 90.0849 23.1347 75.5478C-2.20752 80.8591 -5.86518 67.0479 10.1348 48.0479Z" stroke="black"/>
</svg>
